<?xml version="1.0" encoding="UTF-8"?>
<svg id="Camada_2" data-name="Camada 2" xmlns="http://www.w3.org/2000/svg" viewBox="0 0 697.12 474.61">
  <defs>
    <style>
      .cls-1 {
        fill: #2d2614;
      }

      .cls-2 {
        fill: #665c33;
      }

      .cls-3 {
        fill: #353126;
        stroke: #020202;
      }

      .cls-3, .cls-4, .cls-5, .cls-6 {
        stroke-miterlimit: 10;
      }

      .cls-7 {
        fill: #2f2916;
      }

      .cls-4 {
        stroke: #000;
      }

      .cls-4, .cls-6 {
        fill: none;
      }

      .cls-5 {
        fill: #493717;
        stroke: #060707;
      }

      .cls-6 {
        stroke: #090a0a;
      }

      .cls-8 {
        fill: #412913;
      }

      .cls-9 {
        fill: #090a0a;
      }

      .cls-10 {
        fill: #9c9163;
      }

      /* Novo código adicionado */
      .cls-11 {
        fill: #ff0000;
      }

      
    </style>
  </defs>
  <g id="body">
    <path id="contorno" class="cls-5" d="m339.19,444.57c-6,1-22,12-22,12-8,10-26,17-26,17l-5-11c-6,4-15.49,11-15.49,11l.49-7-12.36,7-5.64-3-9.39,3h-69.63c-31.98-10-50.98-21-50.98-21-16-9-39-54-39-54-17-16-52-10-52-10,0-9,18-24,18-24,11-16,18-49,18-49,3-12,24-11,24-11,19-1,32.14-.02,32.14-.02,15.86,6.02,31.86,6.02,31.86,6.02,11-11,35-11,35-11h11.47c-3.47-17-.47-26-.47-26,0-16,16-22,16-22-10-23-5-50-5-50,0-11,13-18,13-18-7-16-23-24-23-24-5-3-6-13-6-13-10,4-11.5-4.05-11.5-4.05-8.5,2.05-24.5,14.05-24.5,14.05-11,0-38,3-38,3-4,6-22,7-22,7-3,4-25-3-25-3l-29,11c-4,4-5,9-5,9,9,2,4,11,4,11l-33,29c-4,8,5,15,5,15l-16-7c-8-19,15-25,15-25,10-7,9-13,9-13-3-4-6-37-6-37,2-5,16-3,16-3,17-4,24.05-11.05,24.05-11.05l5.95-11.95,8-4c18-3,33.52,0,33.52,0,14.48-8,34.48-16,34.48-16,8-19,13-26,13-26,9.87-8.09,19.74-16.19,29.61-24.28,15.24-12.5,29.04-29.45,48.86-34.34,11.61-2.86,23.76-4.27,35.53-6.38,5-7,15-19,15-19l55,15.36c18,1.64,30,14.64,30,14.64l18,41c12.59,19.37,22.37,35.93,22.97,36.95,1.67,2.84,2.57,7.32,4.83,9.67,4.5,4.65,12.01,5.3,16.2,10.22,2.73,3.2,4.18,9.27,6,13.16l19,18c10,3,35,15,35,15,9,11,0,54.19,0,54.19-4,9.81,7,41.81,7,41.81,19,11,8,17,8,17.01,4.08,16.28,23.32,21.16,37.73,23.21,8.29,1.18,16.57,1.15,24.91,1.58,12.29.63,20.87-.19,31.65,6.49,16.01,9.92,27.72,24.64,43.86,34.16,10.54,6.21,21.63,11.67,32.85,16.56l18,10s-23,0-23,0c-11.14,0-21.13,10.45-29.05,17.05-21.69,18.08-46.03,32.11-69.95,46.95l-9-8v7c-4-3-14-15-14-15-7,0,3,14,3,14l-14-7,3,9-23-21c-3.89,0,3.97,9.65,9.99,16.45,3.28,3.7,6.01,6.55,6.01,6.55l-11-4,3,17-38,8c2-5-5-12-5-12-11-15-13-8-13-8l6,8c11,5,6,12,6,12-13.17,5.48-37.76-3.61-50.78-6.42-29.12-6.29-63.2-25.19-93.22-15.58Z"/>
    <g id="remendo_00">
      <path class="cls-2" d="m368.69,37.07c-9,0-58,27-58,27,4,5,3,13,3,13l4,16,1,28,26-6.64,19.52-2.37,19.48-.99c8-1,26.5-2.5,26.5-2.5l-23-37-15.93-36.29-2.57,1.79Z"/>
      <line class="cls-4" x1="331.19" y1="47.57" x2="331.19" y2="56.28"/>
      <line class="cls-4" x1="327.19" y1="48.57" x2="335.19" y2="57.57"/>
      <line class="cls-4" x1="365.19" y1="33.57" x2="362.19" y2="41.57"/>
      <line class="cls-4" x1="358.19" y1="32.57" x2="366.17" y2="41.57"/>
      <line class="cls-4" x1="309.19" y1="73.57" x2="318.19" y2="77.57"/>
      <line class="cls-4" x1="316.99" y1="73.57" x2="310.19" y2="76.57"/>
      <line class="cls-4" x1="316.19" y1="97.57" x2="321.19" y2="101.57"/>
      <line class="cls-4" x1="320.15" y1="97.57" x2="316.19" y2="100.98"/>
      <line class="cls-4" x1="329.19" y1="115.57" x2="330.19" y2="122.57"/>
      <line class="cls-4" x1="333.47" y1="115.57" x2="328.2" y2="121.07"/>
      <line class="cls-4" x1="359.19" y1="108.57" x2="365.19" y2="114.69"/>
      <line class="cls-4" x1="363.69" y1="107.71" x2="360.44" y2="114.69"/>
      <line class="cls-4" x1="390.19" y1="105.57" x2="396.5" y2="114.69"/>
      <line class="cls-4" x1="395.19" y1="107.57" x2="391.19" y2="114.57"/>
    </g>
    <g id="remendo_01">
      <polygon class="cls-7" points="264.19 161.57 297.19 142.57 307.19 168.57 297.19 187.57 274.19 189.57 264.19 161.57"/>
      <line class="cls-4" x1="299.19" y1="157.57" x2="310.69" y2="154.12"/>
      <line class="cls-4" x1="307.19" y1="151.75" x2="301.19" y2="163.57"/>
      <line class="cls-4" x1="299.19" y1="175.22" x2="304.94" y2="180.5"/>
      <line class="cls-4" x1="297.87" y1="180.5" x2="302.06" y2="182.87"/>
      <line class="cls-4" x1="281.19" y1="184.57" x2="281.19" y2="191.31"/>
      <line class="cls-4" x1="272.19" y1="176.57" x2="264.19" y2="180.5"/>
      <line class="cls-4" x1="264.19" y1="175.22" x2="272.19" y2="179.44"/>
      <line class="cls-4" x1="288.37" y1="142.57" x2="288.37" y2="149.38"/>
      <line class="cls-4" x1="284.42" y1="145.97" x2="284.42" y2="152.8"/>
    </g>
    <g id="remendo_02">
      <path class="cls-10" d="m423.34,290.56c10.85,6,24.85,25,24.85,25,6,8,3.95,39.26,3.95,39.26l26.33,6.41,31.24,3.02-7.52-27.69c-4-20-19-28-19-28-6,0-42-9-42-9l-17.85-9Z"/>
      <line class="cls-4" x1="446.19" y1="334.57" x2="459.19" y2="341.57"/>
      <line class="cls-4" x1="450.19" y1="332.57" x2="458.22" y2="338.07"/>
      <line class="cls-4" x1="440.19" y1="316.57" x2="451.19" y2="313.57"/>
      <line class="cls-4" x1="447.19" y1="318.57" x2="454.2" y2="316.57"/>
      <line class="cls-4" x1="434.19" y1="304.57" x2="447.19" y2="306.56"/>
      <line class="cls-4" x1="442.19" y1="302.57" x2="439.19" y2="309.57"/>
      <line class="cls-4" x1="466.52" y1="310.78" x2="468.86" y2="306.07"/>
      <line class="cls-4" x1="471.14" y1="313.57" x2="473.07" y2="306.95"/>
      <line class="cls-4" x1="487.69" y1="318.57" x2="498.19" y2="320.94"/>
      <line class="cls-4" x1="488.19" y1="320.57" x2="499.95" y2="319.75"/>
      <line class="cls-4" x1="495.8" y1="332.57" x2="504.19" y2="331.57"/>
      <line class="cls-4" x1="499.95" y1="336.96" x2="505.19" y2="336.57"/>
      <line class="cls-4" x1="504.19" y1="350.8" x2="511.19" y2="351.57"/>
      <line class="cls-4" x1="485.12" y1="356.46" x2="489.19" y2="363.57"/>
      <line class="cls-4" x1="490.19" y1="358.57" x2="487.15" y2="363.57"/>
      <line class="cls-4" x1="468.86" y1="354.37" x2="468.86" y2="361.07"/>
    </g>
    <g id="remendos_03">
      <path class="cls-1" d="m90.7,410.49s83.49-34.92,83.49-34.92c10,11,61,42,61,42,3,1,13,5,13,5-2,12-38.41,51-38.41,51-13.44,0-27.97,2.57-40.88-2.27-8.3-3.11-16.47-6.54-24.65-9.94-7.5-3.12-15.36-5.73-22.42-9.79-3.53-2.04-6.55-5.63-9.38-8.61-8.66-9.13-16.39-19.86-21.35-31.49-.14-.32-.27-.64-.4-.97Z"/>
      <path class="cls-4" d="m159.19,374.57c2,1,2.32,11.08,2.32,11.08"/>
      <line class="cls-4" x1="156.19" y1="378.57" x2="158.19" y2="384.57"/>
      <line class="cls-4" x1="119.19" y1="387.57" x2="128.19" y2="399.57"/>
      <line class="cls-4" x1="127.19" y1="388.57" x2="134.19" y2="396.57"/>
      <path class="cls-4" d="m111.67,393.57c5.52,2,7.52,10.58,7.52,10.58"/>
      <line class="cls-4" x1="107.18" y1="396.57" x2="111.67" y2="404.15"/>
      <path class="cls-4" d="m212.94,393.57c-2.75,3-8.75,14-8.75,14"/>
      <path class="cls-4" d="m217.69,398.86c-2.5,1.71-9.12,6.61-9.12,6.61"/>
      <line class="cls-4" x1="227.19" y1="410.57" x2="224.19" y2="415.57"/>
      <line class="cls-4" x1="233.19" y1="414.57" x2="230.23" y2="418.91"/>
      <path class="cls-4" d="m233.19,435.79c6,2.77,12,6.77,12,6.77"/>
      <line class="cls-4" x1="233.19" y1="441.33" x2="236.19" y2="452.57"/>
      <path class="cls-4" d="m231.71,443.97c2.48-.4,8.48,6.6,8.48,6.6"/>
      <line class="cls-4" x1="212.94" y1="465.86" x2="219.19" y2="468.57"/>
      <line class="cls-4" x1="210.57" y1="468.57" x2="219.19" y2="473.57"/>
    </g>
    <g id="linhas">
      <path d="m31.81,388.24c2.44-3.03,6.29-4.29,9.85-5.33,3.54-1,7.12-1.91,10.76-2.61,3.65-.7,7.36-1.18,11.09-1.23,3.82-.13,7.52.57,11.07.92,7.13.69,14.38-.62,21.42-1.99,7.11-1.48,14.14-3.46,21.04-5.83,0,0,.31.79.31.79-6.76,2.87-13.76,5.2-20.91,6.97-7.17,1.75-14.64,3.18-22.07,2.64-7.37-.9-14.29-1.02-21.55.11-3.58.49-7.14,1.2-10.7,2-3.41.8-7.03,1.7-9.54,4.23,0,0-.76-.65-.76-.65h0Z"/>
      <path d="m81.33,326.79c8.7,1.8,17.3,3.92,25.89,6.16,0,0,4.3.84,4.3.84,13.06,2.21,26.4,3.01,39.64,2.54,0,0,.05.48.05.48-13.29,1.46-26.81.97-40.01-1.08-10.22-1.83-20.16-5.05-30.12-7.97,0,0,.25-.97.25-.97h0Z"/>
      <path class="cls-4" d="m130.69,342.1c12.5.47,16.5-1.53,16.5-1.53"/>
      <path class="cls-4" d="m140.19,360.57c5-4,31-6,31-6"/>
      <path d="m167.78,332.13c.95-10.04,5.11-19.89,11.62-27.65,2.91-4.06,8.44-4.23,12.92-3.85,8.64.57,17.09,3.01,25.31,5.23,24.75,6.83,42.88,5.74,67.57,1.77-23.39,5.19-44.64,6.18-68.06.24-8.34-2.05-16.51-4-25.03-4.45-3.95-.16-8.19-.42-10.7,2.79-2.8,3.11-5.24,6.54-7.29,10.2-2.73,4.89-4.83,10.19-6.22,15.73,0,0-.13-.02-.13-.02h0Z"/>
      <path d="m315.16,307.99c3-1.73,6.19-3.13,9.56-4,1.95-.37,3.75-1.14,5.53-2.06,4.77-2.46,9.41-5.38,13.89-8.4,3.77-1.97,7.54-3.95,11.36-5.84,3.32-1.66,8.11-4.03,11.45-5.55,0,0,.23.94.23.94-4.5.34-9.04,1.55-13.46,2.57-4.32,1.04-9.37,2.35-13.3,3.41-4.35,1.9-9.49,4.18-14.24,2.53,1.17.34,2.41.29,3.59.13,3.59-.49,7.01-1.99,10.21-3.62,8.97-2.42,17.87-5.37,27.2-6.01,0,0,1.85-.02,1.85-.02-3.78,2.3-8.76,5.1-12.67,7.27-3.7,2.07-7.45,4.06-11.19,6.05-1.76,1.18-4.66,3-6.86,4.3-3.89,2.23-7.82,4.66-12.26,5.71-.94.16-1.98.41-2.9.66-2.57.69-5.09,1.69-7.51,2.82,0,0-.48-.88-.48-.88h0Z"/>
      <path class="cls-4" d="m362.68,418.91c-10.49,17.65-27.09,26.85-27.09,26.85"/>
      <path d="m347.07,175.19c15.58,9.65,36.59,9,54.07,5.99.02,0-.18.07-.17.07,0,0,3.87-2.71,3.87-2.71,8.98-6.6,18.1-13.67,24.83-22.61,0,0,.9.17.9.17l36.32,6.96s-.16.99-.16.99l-36.66-4.85s1.52-.63,1.52-.63c-2.13,2.62-4.42,4.71-6.87,6.92-5.93,5.23-12.52,9.86-19.16,14.12,0,0-4.03,2.5-4.03,2.5,0,0-.09.06-.09.06,0,0-.09.01-.09.02-17.26,2.72-39.41,3.02-54.27-7h0Z"/>
      <path d="m225.17,181.24c26.29-15.14,50.17-34.61,70.63-56.99,0,0,.77.64.77.64-13.42,16.18-29.21,30.39-46.36,42.52-7.76,5.56-16.08,10.41-24.58,14.72,0,0-.47-.88-.47-.88h0Z"/>
      <path d="m203.54,157.54c3.64-12.88,11.62-23.91,19.18-34.75,3.83-5.43,7.78-10.77,11.96-15.95,4.19-5.12,7.93-10.64,13.01-15.21,1.14-.95,3.02-1.92,4.28-2.7,0,0,4.28-2.54,4.28-2.54,8.27-4.96,17.46-10.29,25.5-15.5,2.8-1.67,5.05-3.96,7.21-6.47,3.26-3.73,9.89-11.23,13.19-14.92,0,0,6.66-7.4,6.66-7.4.02-.03-.12.33-.12.32-.46-2.96-10.23-1.08-12.47-.72,0,0-.07-.29-.07-.29,2.28-.55,4.58-1,6.93-1.23,2.09-.1,6.28-.66,6.61,2.23,0,0,0,.19,0,.19l-.12.14s0,0,0,0c-3.21,3.81-9.67,11.39-12.92,15.15-2.44,2.7-7.38,8.83-9.96,11.22-1.22,1.17-2.64,2.24-4.06,3.11-8.1,5.18-17.32,10.46-25.63,15.38,0,0-4.31,2.48-4.31,2.48-1.17.7-3.14,1.7-4.17,2.55-4.97,4.3-8.77,9.84-13.01,14.85-4.23,5.1-8.25,10.37-12.14,15.74-3.88,5.38-7.79,10.74-11.25,16.39-3.45,5.64-6.48,11.6-8.35,17.96,0,0-.21-.06-.21-.06h0Z"/>
      <path d="m196.69,146.52c1.46-23.35,14.03-46.79,29.12-64.28,0,0,.76.66.76.66-10.7,14.03-19.61,29.67-24.98,46.51-1.09,3.33-2.04,7.27-2.8,10.67-.41,2.17-.7,4.36-1.1,6.54,0,0-1-.09-1-.09h0Z"/>
      <path d="m182.5,143.49c-.86-2.81-2.05-5.47-3.66-7.87-1.16-1.73-3.21-3.27-4.31-5.3-3.6-8.6,7.51-28.73,11.88-36.63,2.98-5.22,6.27-10.26,9.77-15.13-3.59,7.84-7.96,16.44-11.45,24.31-3.24,7.76-7.91,16.43-8.49,24.8-.1.96.56,2.14,1.43,3.25,3.02,3.26,5.33,7.83,5.79,12.36,0,0-.98.2-.98.2h0Z"/>
      <path class="cls-4" d="m62.49,138.01c-3.3,17.56-9.3,18.56-9.3,18.56"/>
      <path class="cls-4" d="m28.19,166.57c7,11,15.19,13.58,15.19,13.58"/>
      <path d="m257.19,37.54c3.47-7.32,9.09-13.36,14.59-19.21,5.27-5.55,11.37-10.91,17.05-16.03,0,0,.25-.25.25-.25,0,0,.1-.11.1-.11,0,0,.03-.04.03-.03,0,.01-.02.03-.02.04,0,.01,0-.03-.03.16-.01.15.1.33.19.38,0,0,.62-.78.62-.78.16.11.25.48.15.63-.06.15-.2.3-.3.41-.16.17-.65.64-.83.82-11.33,10.41-23.95,20.83-31.79,33.98h0Z"/>
      <path d="m181.07,80.51c2.3-6.73,5.51-13.11,9.11-19.23,3.62-6.11,7.62-12.02,12.51-17.21-4.62,9.13-10.62,18.67-15.85,27.51-1.83,3.01-3.6,6.06-5.53,9.05l-.24-.11h0Z"/>
      <path d="m320.14,26.99c6.54-5.27,14.02-10.06,22.54-11.09,0,0,.02,1,.02,1-8.32.66-15.99,5.33-22.56,10.09h0Z"/>
      <path d="m365.96,131.78c9.56-4.5,20.06-6.38,30.4-8.18,0,0-.21.06-.21.06l4.55-1.74c4.55-1.75,9.12-3.42,13.75-4.95,0,0,.37.93.37.93-5.8,2.7-12,5.18-17.95,7.57-2.62.45-5.28.84-7.91,1.35-7.62,1.5-15.34,2.99-22.57,5.86,0,0-.42-.91-.42-.91h0Z"/>
      <line class="cls-4" x1="451.19" y1="184.57" x2="441.19" y2="207.57"/>
      <line class="cls-4" x1="437.45" y1="182.87" x2="464.19" y2="204.57"/>
      <line class="cls-4" x1="441.19" y1="192.96" x2="460.19" y2="211.57"/>
      <line class="cls-4" x1="435.19" y1="224.57" x2="450.69" y2="197.51"/>
      <line class="cls-4" x1="456.64" y1="192.96" x2="446.19" y2="213.13"/>
      <line class="cls-4" x1="435.19" y1="211.04" x2="446.19" y2="220.85"/>
      <path class="cls-4" d="m458.22,207.57c4.97-7,5.14-13.85,5.14-13.85"/>
      <path class="cls-4" d="m232.99,187.94c-7.8,8.63-8.8,25.63-8.8,25.63"/>
      <path class="cls-4" d="m220.19,203.57c4-5,19-5,19-5"/>
      <path class="cls-4" d="m262.18,206.47c24.71-2.49,50.31,5.75,68.93,22.19"/>
      <path class="cls-4" d="m580.19,376.57c-7,9-14.4,19.02-14.4,19.02"/>
      <path class="cls-4" d="m539.19,394.57c8,4,24,9,24,9"/>
      <path class="cls-4" d="m539.19,388.57c16,1,33,10,33,10"/>
      <line class="cls-4" x1="548.19" y1="402.57" x2="561.19" y2="386.57"/>
    </g>
  </g>
  <g id="eyes">
    <g>
      <g id="eyes-2" data-name="eyes">
        <path class="cls-8" d="m392.02,269.69c-3.19.03-6.39-.06-9.56-.23-7.18-.38-20.65.36-25.36-5.8-10.38-13.61-21.93-25.25-35.6-35.63-5.55-4.22-14.28-12.83-21.32-14.46-15.9-3.41-32.98,2.1-47.45,8.41-5.06,2.21-10.92,4.47-15.42,7.74-8.21,5.95-7.59,17.12-6.34,26,.61,4.31,2.03,21.15,6.22,23.85,18.4,11.83,40.31,16.85,62.04,15.42,6.58-.43,13.24-1.36,19.62-3.06,8.86-2.37,15.32-8.61,24.72-10.13,6.7-1.08,13.87-1.23,20.61-.23,16.64,2.46,31.02-4.07,47.18,3.33,10.07,4.61,19.99,9.59,29.83,14.67,21,4,45-6,45-6,8-5,12-23,12-23l-11-39c3-13,4-22,4-22,0,0-8.71,27.5-8.71,27.5-11.68,5.73-24.77,7.97-36.3,14.06-5.47,2.89-8.95,7.72-13.88,10.87-4.29,2.74-10.27,3.28-15.11,4.58"/>
        <path class="cls-9" d="m392.02,269.95c-4.02.63-9.85.32-13.95.25-6.9-.28-14.89.03-20.63-4.72-.86-.74-1.63-1.94-2.33-2.79-9.88-12.8-21.49-24.25-34.38-34.01-4.56-3.55-8.81-7.53-13.63-10.71-5.61-4.13-12.65-4.59-19.37-4.37-16.13.82-31.33,7.53-45.71,14.45-12.22,5.69-11.45,17.61-9.77,29.2.91,6.69,1.38,13.84,4.28,19.91.43.67.7,1.17,1.35,1.57,5.09,3.24,10.46,6.01,16.06,8.23,19.22,7.7,40.76,9.08,60.97,4.84,6.98-1.21,12.65-4.72,18.99-7.88,8.55-4.24,18.49-4.42,27.81-3.59,2.37.29,4.59.71,6.88.86,6.93.55,13.82-.26,20.79-.48,4.66-.12,9.39-.02,13.99,1,4.61.91,8.88,3.02,13.1,4.98,8.01,3.75,18.03,8.34,24.91,11.89,11.21,1.78,22.68.22,33.71-2.16,3.62-.78,7.7-2.07,10.84-3.27,6.78-4.89,9.64-14.94,11.32-22.78.43,2.42-10.66-39.22-10.54-38.66,1.49-7.32,3.12-14.74,3.98-22.2,0,0,.97.21.97.21l-4.32,13.76c-1.12,3.69-2.94,9.29-4.05,12.9-.14.41-.23.9-.56,1.2-12.3,6.13-26.02,8.21-37.8,14.97-5.15,3.16-8.81,8.44-14.42,10.99-4.21,1.86-8.86,2.26-13.28,3.21,0,0-.1-.37-.1-.37,2.9-.91,5.89-1.45,8.76-2.29,6.05-1.33,10.22-5.82,14.7-9.8,2.28-2.03,4.98-3.67,7.74-4.95,10.93-5.25,23.01-7.54,33.88-12.8-.06-.03-.14-.02-.17,0-.01,0-.03.05-.02.01,0,0,.03-.11.03-.11,2.48-7.69,6.15-19.28,8.65-27.04,0,0,.98.2.97.21-.93,7.43-2.35,14.76-4.01,22.05.02-1.28,11.31,38.93,11.44,38.63,0,0,.07.24.07.24,0,0-.06.23-.06.24-2.49,7.8-5.72,18.4-12.71,23.23-10.79,4.22-22.1,7.64-33.79,7.65-3.97,0-8.03-.26-11.91-1.2-10.2-5.48-20.41-11.05-31-15.73-6.41-2.64-13.4-3.22-20.29-2.82-6.93.37-13.95,1.33-20.94.94-11.26-1.18-23.23-2.23-33.69,2.94-6.1,3.07-12.44,6.87-19.44,8.05-20.61,4.35-42.59,2.95-62.21-4.9-5.45-2.17-10.72-4.81-15.68-7.94,0,0-.75-.46-.75-.46-.82-.53-1.63-1.48-2.05-2.32-3.19-6.51-3.57-13.75-4.56-20.72-1.86-12.39-2.26-25.13,10.9-31.33,18.41-8.74,40.11-18.39,60.81-13.2,7.84,2.95,13.64,9.14,20.13,14.12,12.08,9.17,23.03,19.83,32.54,31.64,1.44,1.69,2.76,3.7,4.29,5.29,1.55,1.4,3.62,2.28,5.76,2.87,8.95,2.16,18.38,1.23,27.48,2.52,0,0,0,.53,0,.53h0Z"/>
      </g>
      <g id="linhas_eyes">
        <path class="cls-6" d="m239.19,250.91c-1.72,5.53-2.87,12.16,1.62,16.51,6.08,5.89,13.35,10.94,20,16.18"/>
        <path class="cls-6" d="m315.4,246.17c4.12,6.65,7.75,13.58,9.99,21.1,1.33,4.45-1.49,5.67-3.17,9.3"/>
        <path class="cls-6" d="m309.19,226.57c10,14,25,12,25,12"/>
        <path class="cls-6" d="m422.35,283.62c.84-6.05,17.84-18.2,17.84-18.2"/>
        <path class="cls-6" d="m481.19,246.57c12,18-2.4,30-2.4,30"/>
      </g>
    </g>
  </g>
  <g id="boca">
    <path id="boca-2" data-name="boca" class="cls-3" d="m176.42,327.29c3.42,1.06,5.64,4.57,8.77,6.27,4.56,2.49,13.65,1.85,18.65,1.35,5.67-.56,10.25-3.37,15.65-4.32,1.83-.32,3.72-.05,5.55.26,21.38,3.65,36.77,15.36,54.97,26.24,2.4,1.44,4.83,2.87,7.44,3.9,10.2,4.04,21.46,3.01,32.19,2.92,11.26-.1,21.18.54,32.35-1.86,4.11-.88,8.24-1.77,12.19-3.21,10.01-3.65,19.37-9.77,30.28-10.26,12.32-.56,25.21-.9,37.45,1.14,15.81,2.63,30.61,9.54,46.55,11.51,10.38,1.29,20.8,2.25,31.24,3.02,6.13.45,11.91-1.85,17.27-4.58,1.36-.69,12.45-8.06,11.21-3.11-2,8-13,12-13,12l-19,2c-18,1-48,12-48,12-30.4,4.9-61.51,3.46-91.89-.86-14.74-2.1-29.3-4.81-44.03-6.8-11.18-1.5-22.59-1.58-32.61-7.21-13.39-7.52-26.8-15.06-40.46-22.13-7.91-2.54-15.47-6.77-23.82-7.76-8.91-1.05-17.93,2.7-27.1,2.27-7.25-.34-14.32-3.27-19.91-7.86-1.56-1.28-2.77-2.96-2-4.95.02,0,.05.01.07.02Z"/>
    <g id="linhas_bocas">
      <line class="cls-4" x1="349.13" y1="364.26" x2="351.69" y2="357.72"/>
      <line class="cls-4" x1="347.84" y1="358.57" x2="354.19" y2="366.57"/>
      <line class="cls-4" x1="384.19" y1="346.57" x2="390.19" y2="353.57"/>
      <line class="cls-4" x1="387.19" y1="346.57" x2="385.95" y2="354.37"/>
      <path class="cls-4" d="m404.15,380.11c5.04,1.46,8.7,8.46,8.7,8.46"/>
      <path class="cls-4" d="m404.19,390.57c2-4,1.28-9,1.28-9"/>
      <line class="cls-4" x1="192.64" y1="340.57" x2="197.38" y2="338.07"/>
      <line class="cls-4" x1="208.57" y1="332.14" x2="209.78" y2="335.32"/>
      <line class="cls-4" x1="210.57" y1="329.77" x2="213.13" y2="335.32"/>
      <path class="cls-4" d="m245.19,339.32c1-2.75,0-6.75,0-6.75"/>
      <path class="cls-4" d="m249.24,335.32c1.95,2.25,0,6.05,0,6.05"/>
      <line class="cls-4" x1="256.72" y1="346.57" x2="256.72" y2="353.57"/>
      <line class="cls-4" x1="260.81" y1="350.07" x2="258.57" y2="353.57"/>
      <line class="cls-4" x1="181.03" y1="332.14" x2="181.03" y2="327.41"/>
      <line class="cls-4" x1="183.68" y1="332.57" x2="183.68" y2="329.78"/>
      <line class="cls-4" x1="198.7" y1="338.34" x2="197.38" y2="342.17"/>
      <line class="cls-4" x1="301.19" y1="365.57" x2="303.93" y2="361.07"/>
      <line class="cls-4" x1="299.71" y1="361.07" x2="298.66" y2="365.57"/>
      <line class="cls-4" x1="310.26" y1="372.57" x2="307.1" y2="375.57"/>
      <line class="cls-4" x1="307.1" y1="370.39" x2="310.26" y2="375.57"/>
      <path class="cls-4" d="m450.19,381.57c5,1,6.45,4.5,6.45,4.5"/>
      <path class="cls-4" d="m454.2,378.83c3.99-.26,4.99,6.82,4.99,6.82"/>
      <path class="cls-4" d="m428.81,349.26c-1.62,2.31-3.03,2.56-3.03,2.56"/>
      <path class="cls-4" d="m423.34,346.57c5.85,5,7.93,7.8,7.93,7.8"/>
      <path class="cls-4" d="m527.05,354.37c4.14,3.2,3.16,6.62,3.16,6.62"/>
      <path class="cls-4" d="m527.05,356.46c4.14,1.11,7.12,3.55,7.12,3.55"/>
      <line class="cls-4" x1="522.04" y1="365.57" x2="522.04" y2="370.39"/>
      <line class="cls-4" x1="520.72" y1="366.57" x2="525.73" y2="370.39"/>
    </g>
  </g>
</svg>